<?xml version="1.0" standalone="no"?>
<!DOCTYPE svg PUBLIC "-//W3C//DTD SVG 20010904//EN"
 "http://www.w3.org/TR/2001/REC-SVG-20010904/DTD/svg10.dtd">
<svg version="1.0" xmlns="http://www.w3.org/2000/svg"
 width="745.000000pt" height="745.000000pt" viewBox="0 0 745.000000 745.000000"
 preserveAspectRatio="xMidYMid meet">
<metadata>
Created by potrace 1.11, written by Peter Selinger 2001-2013
</metadata>
<g transform="translate(0.000000,745.000000) scale(0.100000,-0.100000)"
fill="#000000" stroke="none">
<path d="M3385 7443 c-89 -8 -324 -46 -391 -63 -39 -10 -122 -40 -185 -65
-254 -105 -337 -158 -461 -297 -40 -45 -114 -122 -164 -172 -50 -50 -107 -116
-126 -147 -20 -31 -52 -77 -71 -102 -19 -25 -68 -110 -107 -188 -56 -111 -76
-161 -90 -233 -11 -50 -30 -127 -43 -172 -38 -122 -51 -275 -44 -506 4 -147 9
-204 19 -214 10 -10 140 -14 613 -18 330 -3 614 -7 630 -9 17 -3 42 1 56 9 27
14 343 13 698 -1 99 -4 191 -2 258 6 83 10 108 10 127 -1 16 -8 38 -10 63 -5
30 5 177 13 298 16 11 0 21 -4 23 -10 2 -6 14 -6 33 1 20 7 106 9 242 5 122
-3 203 -2 192 3 -11 5 63 6 175 3 107 -3 198 -10 201 -15 16 -25 205 -40 239
-18 12 7 12 12 -4 28 -17 19 -16 21 6 36 22 16 23 15 26 -3 2 -13 17 -23 47
-31 39 -11 48 -10 70 4 17 11 25 25 25 44 -1 54 -29 239 -49 317 -11 45 -27
140 -36 212 -15 134 -27 183 -44 183 -5 0 -12 26 -15 58 -10 77 -15 92 -31 86
-12 -5 -28 23 -24 42 1 5 -1 21 -5 35 -4 14 -8 32 -10 41 -1 9 -7 22 -12 29
-6 8 -17 37 -24 64 -7 28 -52 124 -99 214 l-86 165 -140 140 c-169 170 -278
265 -376 328 -87 55 -123 70 -249 103 -233 62 -309 77 -455 86 -155 11 -629
19 -700 12z m159 -169 c21 -8 21 -26 0 -22 -10 2 -19 -3 -21 -9 -6 -16 33 -17
43 -2 3 6 17 8 29 5 29 -7 42 9 18 23 -13 8 4 10 67 11 70 0 95 -5 138 -25 56
-26 72 -28 264 -26 94 1 137 -3 170 -14 23 -9 61 -20 83 -25 22 -5 60 -16 84
-24 24 -9 62 -16 85 -16 54 -1 141 -49 288 -161 134 -102 266 -247 410 -448
53 -75 104 -143 112 -152 9 -9 16 -20 16 -25 0 -9 59 -155 80 -199 20 -40 90
-252 95 -285 21 -147 29 -211 29 -247 0 -24 4 -43 9 -43 5 0 5 -10 1 -22 -10
-33 -7 -82 5 -86 6 -2 11 -13 11 -24 0 -18 -4 -19 -36 -13 -22 4 -48 1 -66 -6
-25 -10 -32 -9 -52 10 -12 11 -27 21 -33 21 -20 0 -68 -30 -68 -42 -1 -17 -38
-10 -48 8 -13 22 -64 18 -72 -6 -8 -24 -18 -25 -35 -5 -7 8 -21 15 -32 15 -10
0 -16 5 -13 10 11 18 -22 10 -40 -10 -14 -16 -26 -19 -56 -14 -23 4 -51 1 -69
-6 -17 -7 -37 -9 -47 -4 -25 11 -107 12 -114 2 -3 -5 -12 -2 -19 7 -10 13 -9
15 6 16 14 0 12 3 -6 8 -42 12 -301 -4 -310 -19 -5 -8 -31 -13 -74 -13 -36 0
-66 -4 -66 -9 0 -6 -52 -7 -132 -3 -73 4 -173 8 -223 8 -63 0 -79 2 -55 7 l35
7 -37 2 c-21 0 -38 -4 -38 -10 0 -11 -236 -7 -247 5 -11 11 -91 6 -95 -5 -6
-18 -253 -7 -273 12 -13 13 -53 11 -57 -2 -3 -8 -26 -7 -82 5 -54 11 -83 13
-96 6 -10 -6 -31 -10 -45 -10 -14 0 -35 -5 -46 -11 -15 -8 -24 -7 -35 2 -12
10 -20 10 -35 1 -12 -8 -41 -11 -77 -8 -167 15 -265 17 -271 7 -12 -19 -178
-25 -253 -9 -43 9 -91 12 -135 8 -64 -6 -101 -6 -199 -2 l-40 2 13 98 c7 53
22 168 33 255 13 104 30 189 49 245 16 48 44 139 61 202 17 63 34 123 36 133
3 9 12 17 20 17 9 0 25 23 39 54 13 29 30 56 39 59 8 3 18 22 22 41 4 27 11
36 25 36 15 0 29 20 56 80 29 65 40 80 58 80 15 0 35 18 65 60 24 33 49 60 55
60 6 0 26 18 44 40 44 55 152 144 160 131 7 -10 154 70 185 102 10 9 29 20 44
23 15 4 34 13 42 20 8 7 66 24 128 38 86 19 127 24 172 19 50 -5 60 -3 60 9 0
21 41 28 119 21 41 -4 62 -3 58 4 -3 5 4 9 16 8 12 -1 28 4 35 12 15 15 15 15
36 7z m1156 -1844 c0 -5 -10 -10 -22 -9 -22 0 -22 1 -3 9 11 5 21 9 23 9 1 1
2 -3 2 -9z m-152 -7 c-10 -2 -26 -2 -35 0 -10 3 -2 5 17 5 19 0 27 -2 18 -5z"/>
<path d="M3730 7261 c0 -15 25 -30 38 -22 9 5 5 11 -13 19 -14 6 -25 8 -25 3z"/>
<path d="M4965 5450 c-4 -6 8 -10 29 -10 20 0 36 4 36 8 0 12 -58 14 -65 2z"/>
<path d="M4255 5440 c-14 -6 8 -9 69 -9 49 -1 87 1 84 4 -9 10 -133 14 -153 5z"/>
<path d="M3623 4881 c-6 -23 -19 -28 -25 -9 -3 9 -77 12 -284 12 -254 1 -283
-1 -322 -18 -36 -16 -46 -17 -66 -6 -19 10 -79 11 -273 5 -136 -4 -268 -9
-293 -10 -79 -6 -392 -5 -402 1 -24 15 -257 1 -260 -16 -1 -3 4 -63 11 -135 6
-71 14 -326 16 -565 2 -239 7 -475 10 -525 3 -49 1 -166 -5 -260 -22 -330 -23
-456 -4 -492 16 -31 16 -34 -1 -59 -17 -27 -17 -28 5 -46 12 -10 52 -27 88
-39 62 -19 81 -20 257 -14 105 4 201 9 215 11 14 1 176 6 360 10 249 5 338 10
345 19 8 9 25 10 72 2 35 -5 60 -14 57 -18 -6 -11 61 -11 136 -2 l55 8 -45 6
c-35 5 -25 6 43 7 57 1 86 -2 82 -8 -4 -7 75 -11 227 -12 381 -4 452 -2 443
12 -4 6 9 10 32 10 28 0 34 -3 23 -10 -10 -6 59 -10 205 -10 372 -2 534 -7
680 -23 179 -20 475 -31 475 -18 0 6 -24 12 -52 14 -46 3 -44 4 19 5 67 2 105
-10 66 -21 -10 -3 17 -5 61 -5 70 1 81 4 99 25 32 36 29 75 -8 90 l-30 11 45
1 c52 1 85 16 58 26 -13 5 -14 12 -6 39 8 24 6 51 -6 103 -21 95 -37 328 -29
438 6 93 9 326 6 570 -6 532 -4 713 6 720 9 5 9 10 0 21 -9 11 -7 14 9 14 11
0 33 5 49 11 l28 11 -30 14 c-16 7 -43 14 -60 15 -25 1 -23 3 14 10 59 11 77
29 29 29 -20 0 -46 8 -61 20 -26 21 -114 29 -102 10 3 -5 -3 -10 -15 -10 -12
0 -19 4 -16 9 3 5 -14 8 -39 8 -25 -1 -47 -7 -49 -14 -3 -7 -12 -10 -21 -7 -8
3 -13 10 -10 14 3 4 -31 8 -74 9 -62 1 -80 -2 -84 -14 -5 -11 -17 -14 -49 -10
-24 3 -68 7 -98 9 -30 2 -56 9 -58 15 -6 17 -92 14 -98 -4 -4 -9 -19 -15 -35
-15 -17 0 -32 -6 -35 -15 -3 -8 -15 -17 -25 -20 -29 -9 -169 -11 -169 -2 0 4
-9 7 -20 7 -11 0 -20 -4 -20 -8 0 -5 -7 -9 -15 -9 -8 0 -13 2 -10 5 7 7 -19
29 -43 36 -12 4 -20 11 -18 15 3 4 -63 11 -146 14 -231 10 -279 9 -292 -7 -8
-11 -20 -13 -46 -7 -19 5 -30 10 -25 11 6 1 1 5 -10 10 -28 12 -115 12 -115 0
0 -5 -10 -10 -22 -10 -19 0 -20 2 -8 10 10 7 -19 10 -91 10 -58 0 -127 3 -153
6 -42 6 -48 5 -53 -15z m-70 -28 c-13 -2 -33 -2 -45 0 -13 2 -3 4 22 4 25 0
35 -2 23 -4z m-1645 -124 c49 -18 77 -19 450 -14 405 5 434 6 652 25 69 7 159
8 200 5 41 -4 118 -5 170 -4 151 5 629 0 700 -7 75 -8 125 -10 550 -17 292 -5
745 -18 815 -22 17 -1 56 -3 89 -4 45 -1 56 -4 48 -13 -6 -8 -11 -140 -13
-358 -3 -308 -1 -348 14 -377 21 -40 21 -56 1 -95 -11 -21 -15 -56 -15 -122 1
-50 2 -104 2 -121 0 -16 1 -48 1 -70 2 -41 1 -105 -2 -230 -1 -38 -1 -113 -1
-165 2 -149 -9 -250 -25 -250 -8 0 -14 -4 -14 -10 0 -5 7 -10 15 -10 8 0 15
-4 15 -9 0 -5 -63 -7 -147 -3 -109 4 -144 2 -139 -6 9 -15 -42 -16 -76 -3 -28
11 -184 31 -276 36 -272 15 -326 14 -378 -1 -32 -9 -63 -12 -76 -8 -25 8
-1048 8 -1198 0 -79 -4 -88 -4 -52 5 24 6 42 12 40 14 -5 5 -342 -13 -360 -20
-9 -4 -19 -2 -23 4 -3 6 -12 11 -18 11 -7 0 -6 -4 3 -10 11 -7 -4 -10 -50 -11
-36 0 -78 -2 -95 -4 -108 -9 -397 -13 -380 -5 14 7 -8 9 -70 5 -49 -2 -152 -8
-227 -11 l-137 -7 -10 26 c-27 70 -40 219 -47 542 -12 560 -17 972 -14 1023 2
25 -13 178 -26 258 -11 71 -5 73 104 33z m325 -1886 c-7 -2 -19 -2 -25 0 -7 3
-2 5 12 5 14 0 19 -2 13 -5z m-100 -10 c-7 -2 -19 -2 -25 0 -7 3 -2 5 12 5 14
0 19 -2 13 -5z m2627 -63 c13 -9 13 -10 0 -9 -8 1 -26 5 -40 9 l-25 8 25 1
c14 0 32 -4 40 -9z m-710 -9 c0 -14 -28 -21 -86 -21 -43 0 -52 3 -48 15 5 11
22 15 70 15 35 0 64 -4 64 -9z m813 2 c-7 -2 -21 -2 -30 0 -10 3 -4 5 12 5 17
0 24 -2 18 -5z m197 -14 c31 -1 29 -2 -15 -10 -27 -4 -52 -5 -55 -1 -3 4 -18
9 -35 11 -16 1 -32 5 -35 8 -3 3 20 3 50 -1 30 -3 71 -6 90 -7z m246 -16 c-4
-4 -39 -6 -78 -4 -51 2 -73 -1 -79 -11 -6 -9 -11 -10 -16 -2 -5 6 -15 14 -23
17 -8 3 34 6 94 6 60 1 106 -2 102 -6z m207 -10 c-7 -2 -21 -2 -30 0 -10 3 -4
5 12 5 17 0 24 -2 18 -5z m-207 -16 c4 -4 -23 -7 -59 -7 -37 0 -67 3 -67 8 0
9 117 8 126 -1z"/>
<path d="M3295 2900 c-15 -6 -9 -9 25 -9 34 0 40 3 25 9 -11 5 -22 9 -25 9 -3
0 -14 -4 -25 -9z"/>
<path d="M3380 2900 c-9 -6 -10 -10 -3 -10 6 0 15 5 18 10 8 12 4 12 -15 0z"/>
<path d="M4078 2903 c18 -2 45 -2 60 0 15 2 0 4 -33 4 -33 0 -45 -2 -27 -4z"/>
<path d="M2575 2879 c-24 -6 -20 -7 19 -4 27 2 51 7 54 10 8 7 -38 4 -73 -6z"/>
<path d="M2683 2883 c15 -2 39 -2 55 0 15 2 2 4 -28 4 -30 0 -43 -2 -27 -4z"/>
<path d="M2778 2883 c6 -2 18 -2 25 0 6 3 1 5 -13 5 -14 0 -19 -2 -12 -5z"/>
<path d="M2895 2382 c-35 -4 -37 -6 -15 -12 14 -3 -35 -9 -115 -13 -77 -4
-194 -12 -261 -18 -91 -9 -133 -8 -170 0 -51 13 -479 16 -545 5 -36 -6 -37 -7
-43 -57 -5 -45 -8 -366 -8 -872 0 -71 -1 -168 -2 -215 0 -47 5 -124 13 -172 7
-49 10 -117 7 -155 -3 -37 -9 -192 -14 -343 -4 -151 -11 -280 -15 -286 -9 -15
48 -29 203 -48 153 -19 297 -15 365 9 41 15 84 19 229 19 128 1 180 -2 183
-11 6 -15 -70 -14 1418 -18 699 -2 1310 1 1359 6 89 8 126 22 93 35 -9 3 -17
12 -17 19 0 8 -12 15 -27 17 -28 4 -28 4 7 15 31 9 37 8 55 -13 11 -13 34 -27
51 -30 38 -7 82 27 109 85 17 38 17 45 2 108 -8 38 -18 123 -21 190 -4 67 -8
128 -11 135 -2 7 -9 76 -15 153 -6 77 -13 163 -15 190 -3 28 -7 192 -10 365
-2 173 -9 353 -15 400 -12 94 -3 378 12 397 9 11 -11 29 -80 75 -14 10 -19 18
-13 23 21 12 11 23 -16 17 -16 -3 -111 -6 -213 -5 -123 0 -167 -2 -132 -7 29
-4 56 -11 59 -14 5 -5 -836 -13 -892 -8 -66 6 -822 9 -830 4 -5 -4 6 -10 25
-13 31 -6 29 -7 -18 -8 -31 0 -51 3 -47 8 7 12 -31 18 -150 26 -49 2 -126 7
-170 10 -54 3 -73 2 -60 -4 17 -8 15 -10 -12 -10 -21 -1 -32 3 -30 12 3 18
-52 21 -66 3 -9 -11 -23 -13 -62 -8 l-50 6 40 7 c39 6 39 6 5 6 -19 0 -53 -2
-75 -5z m655 -158 c212 -2 444 -5 515 -7 72 -1 138 1 148 6 11 5 46 3 85 -4
37 -6 166 -13 287 -14 234 -3 538 -11 827 -22 207 -7 186 12 176 -168 -14
-242 -15 -629 -4 -1250 3 -176 3 -333 -1 -349 -5 -25 -9 -28 -37 -22 -17 3
-42 8 -55 12 -16 5 -22 3 -18 -3 13 -21 -100 -26 -683 -28 -574 -2 -680 -6
-680 -26 0 -12 -167 -12 -175 1 -8 13 -218 13 -230 1 -12 -12 -36 -14 -100
-11 l-50 3 50 7 c28 4 -51 7 -180 8 -126 0 -224 -2 -217 -5 43 -17 -21 -22
-285 -20 -164 0 -290 3 -280 5 9 2 17 8 17 14 0 6 -10 8 -22 4 -13 -3 -42 -6
-66 -6 -24 0 -41 -4 -38 -9 6 -9 -115 -21 -198 -20 -43 0 -47 2 -27 10 39 16
18 20 -50 10 -63 -9 -327 -6 -337 4 -3 2 3 25 13 51 18 49 16 140 -7 231 -7
30 -7 61 1 105 15 91 17 345 2 390 -9 27 -9 43 -2 57 6 11 11 39 11 63 0 24 4
48 9 54 22 21 44 284 25 284 -4 0 -13 -8 -20 -17 -12 -16 -13 -11 -14 37 0 30
-6 91 -13 135 -8 47 -10 94 -5 115 4 19 11 108 14 198 4 89 11 165 15 168 4 2
29 0 54 -6 27 -6 52 -7 59 -2 12 10 185 10 201 1 6 -3 42 -3 80 1 39 4 154 6
258 4 103 -1 187 1 187 4 0 4 58 6 129 4 83 -2 137 0 148 7 10 7 36 9 58 6 22
-3 213 -8 425 -11z"/>
<path d="M2873 353 c15 -2 37 -2 50 0 12 2 0 4 -28 4 -27 0 -38 -2 -22 -4z"/>
<path d="M4180 2380 c0 -5 12 -10 28 -9 24 0 25 1 7 9 -27 12 -35 12 -35 0z"/>
<path d="M4003 2373 c9 -2 23 -2 30 0 6 3 -1 5 -18 5 -16 0 -22 -2 -12 -5z"/>
<path d="M4368 2373 c12 -2 30 -2 40 0 9 3 -1 5 -23 4 -22 0 -30 -2 -17 -4z"/>
<path d="M4578 2373 c23 -2 61 -2 85 0 23 2 4 4 -43 4 -47 0 -66 -2 -42 -4z"/>
</g>
</svg>
