<?xml version="1.0" standalone="no"?>
<!DOCTYPE svg PUBLIC "-//W3C//DTD SVG 20010904//EN"
 "http://www.w3.org/TR/2001/REC-SVG-20010904/DTD/svg10.dtd">
<svg version="1.0" xmlns="http://www.w3.org/2000/svg"
 width="500.000000pt" height="500.000000pt" viewBox="0 0 500.000000 500.000000"
 preserveAspectRatio="xMidYMid meet">
<metadata>
Created by potrace 1.11, written by Peter Selinger 2001-2013
</metadata>
<g transform="translate(0.000000,500.000000) scale(0.100000,-0.100000)"
fill="#000000" stroke="none">
<path d="M2340 4940 c-19 -5 -66 -14 -105 -20 -85 -15 -250 -81 -318 -128 -27
-18 -70 -57 -95 -85 -26 -29 -65 -70 -88 -92 -113 -110 -196 -262 -240 -439
-29 -121 -32 -143 -30 -283 0 -83 3 -154 6 -156 3 -3 169 -6 370 -6 201 -1
446 -1 545 -2 247 0 239 0 695 4 250 3 407 0 411 -6 7 -11 96 -19 122 -11 14
4 15 9 7 19 -8 10 -8 15 1 20 6 4 14 3 18 -2 3 -6 16 -14 29 -17 32 -10 54 10
48 43 -3 14 -8 49 -11 76 -3 28 -11 68 -17 90 -12 47 -14 61 -23 139 -3 33
-13 69 -21 80 -8 11 -14 32 -14 47 0 15 -7 29 -16 33 -8 3 -13 10 -10 15 8 12
-29 112 -81 215 -39 78 -60 106 -152 197 -112 111 -184 167 -247 194 -61 25
-231 65 -303 71 -111 9 -444 12 -481 4z m165 -100 c3 -5 11 -10 16 -10 6 0 7
5 4 10 -4 6 8 10 29 10 19 0 38 -4 41 -10 3 -5 12 -10 18 -10 7 0 6 4 -3 10
-22 14 6 13 33 -1 11 -7 71 -12 132 -13 60 -1 117 -6 125 -11 8 -5 26 -11 39
-13 14 -2 32 -7 42 -13 10 -5 29 -9 44 -9 56 0 178 -88 286 -206 53 -59 179
-232 179 -247 0 -7 4 -17 9 -23 4 -5 13 -22 19 -39 6 -16 22 -61 37 -100 14
-38 28 -90 31 -115 3 -25 8 -58 11 -75 3 -16 6 -50 8 -75 1 -25 4 -51 6 -58 5
-16 -72 -25 -82 -10 -7 11 -59 0 -59 -13 0 -5 -12 -4 -26 1 -18 7 -31 7 -39 0
-9 -8 -15 -8 -20 0 -3 6 -11 8 -16 5 -5 -4 -9 -1 -9 6 0 8 -5 7 -16 -2 -11 -9
-48 -14 -113 -15 -54 0 -85 3 -71 7 21 6 22 7 5 9 -33 3 -124 -1 -153 -7 -15
-3 -31 -5 -37 -4 -81 9 -89 10 -60 3 55 -14 -2 -18 -175 -14 -91 2 -190 4
-220 3 -30 0 -77 0 -105 -1 -27 0 -61 3 -75 6 -14 3 -32 5 -40 5 -8 -1 -26 -1
-40 0 -14 1 -34 1 -45 1 -119 -6 -351 -13 -390 -13 -27 0 -98 1 -158 1 l-108
-1 4 54 c2 29 6 58 9 63 3 5 9 44 12 86 3 43 15 104 25 135 11 32 28 87 37
123 10 36 21 67 25 70 14 10 59 81 59 93 0 7 9 18 19 24 11 7 24 28 31 47 6
20 16 36 21 36 6 0 48 38 95 85 46 47 89 83 94 80 6 -4 31 8 56 25 25 17 62
39 82 49 45 22 147 43 185 37 17 -2 27 1 27 9 0 8 14 11 46 9 25 -3 53 0 62 6
22 12 49 13 57 0z"/>
<path d="M2478 4833 c7 -3 16 -2 19 1 4 3 -2 6 -13 5 -11 0 -14 -3 -6 -6z"/>
<path d="M2178 3504 c-13 -7 -29 -9 -38 -4 -8 4 -80 5 -160 2 -131 -5 -251 -6
-425 -3 -106 1 -98 9 -89 -88 9 -101 10 -800 2 -916 -3 -44 -1 -92 4 -107 7
-20 7 -33 -1 -42 -9 -11 -4 -17 26 -31 43 -20 96 -22 343 -12 91 4 207 7 258
8 50 1 94 5 97 9 6 9 44 2 61 -11 12 -10 64 -8 64 2 0 6 109 4 343 -5 43 -1
80 1 83 6 3 4 -9 8 -27 8 -62 0 -20 12 50 14 59 2 67 0 53 -10 -14 -11 4 -13
108 -14 218 0 402 -10 475 -25 11 -2 27 0 35 6 11 8 9 9 -9 4 -14 -4 -21 -3
-18 2 4 6 -4 8 -17 6 -13 -3 -26 -1 -29 4 -7 11 100 10 110 -1 3 -3 1 -6 -5
-6 -7 0 -12 -4 -12 -8 0 -14 103 -7 108 7 3 9 0 11 -9 6 -8 -5 -10 -4 -6 0 13
15 36 14 30 -1 -3 -8 1 -15 8 -16 48 -5 76 -2 87 9 16 16 11 49 -7 45 -7 -1
-10 2 -6 8 4 6 14 9 22 8 20 -4 35 45 24 75 -11 28 -24 178 -21 237 1 25 3
200 4 390 3 380 3 381 14 379 18 -3 32 2 32 11 0 6 -12 11 -27 11 -17 1 -21 3
-10 6 9 2 17 9 17 15 0 6 -3 8 -6 5 -4 -3 -16 0 -28 8 -23 17 -56 20 -56 5 0
-6 -9 -6 -23 -1 -13 5 -30 5 -37 1 -8 -5 -21 -5 -29 -1 -18 9 -71 8 -86 -1
-11 -6 -58 -4 -121 7 -26 5 -44 3 -48 -3 -4 -6 -13 -9 -20 -6 -7 3 -16 -2 -19
-10 -9 -23 -135 -19 -161 6 -18 16 -37 18 -155 17 -75 -1 -149 2 -165 6 -18 5
-36 4 -48 -4 -10 -6 -18 -8 -18 -3 0 4 -38 9 -85 11 -55 1 -85 -1 -85 -8 0 -6
-5 -11 -11 -11 -5 0 -8 3 -6 8 9 13 -309 10 -335 -4z m-608 -74 c45 -12 168
-14 405 -5 241 9 764 9 960 1 152 -7 419 -14 599 -15 81 -1 97 -3 93 -16 -3
-7 -7 -100 -8 -204 -1 -142 2 -195 11 -206 10 -12 10 -21 1 -43 -8 -16 -12
-62 -10 -117 2 -124 3 -134 0 -180 -1 -22 -2 -80 -3 -130 0 -119 0 -115 -12
-115 -6 0 -4 -5 4 -10 10 -7 -10 -10 -65 -10 -44 0 -91 -1 -105 -1 -14 -1 -41
1 -60 5 -51 8 -196 18 -260 17 -737 -7 -809 -7 -803 3 4 6 -1 5 -10 -3 -12 -9
-17 -10 -17 -2 0 7 -3 10 -8 7 -4 -2 -59 -7 -121 -10 -62 -4 -117 -9 -122 -12
-5 -3 -9 0 -9 7 0 8 -4 8 -15 -1 -12 -10 -15 -10 -15 1 0 9 -3 10 -8 4 -4 -5
-38 -11 -75 -13 -37 -2 -77 -5 -88 -7 -10 -2 -19 0 -19 6 0 5 -9 9 -20 9 -11
0 -20 -6 -20 -12 0 -8 -3 -9 -8 -3 -9 13 -42 16 -42 4 0 -5 5 -9 12 -9 6 0 8
-3 4 -7 -4 -5 -13 -1 -19 7 -9 11 -32 15 -81 15 -69 0 -70 0 -79 30 -10 31
-15 176 -21 605 -4 242 -12 396 -23 413 -6 10 15 9 57 -3z m1575 -1098 c-3 -3
-11 0 -18 7 -9 10 -8 11 6 5 10 -3 15 -9 12 -12z m-145 2 c0 -8 -19 -13 -24
-6 -3 5 1 9 9 9 8 0 15 -2 15 -3z m320 -16 c0 -4 -9 -8 -19 -8 -11 0 -22 4
-25 8 -2 4 6 8 20 8 13 0 24 -4 24 -8z m25 2 c3 -5 1 -10 -4 -10 -6 0 -11 5
-11 10 0 6 2 10 4 10 3 0 8 -4 11 -10z m160 -10 c3 -5 1 -10 -4 -10 -6 0 -11
5 -11 10 0 6 2 10 4 10 3 0 8 -4 11 -10z"/>
<path d="M2125 2109 c-22 -4 -89 -10 -150 -13 -60 -4 -117 -9 -127 -12 -9 -3
-19 0 -22 5 -4 6 -13 8 -20 5 -8 -3 -17 -1 -20 4 -3 5 -25 6 -48 3 -24 -4 -59
-6 -78 -5 -107 6 -127 5 -151 -4 -14 -6 -26 -16 -26 -24 -3 -51 -2 -470 2
-588 2 -80 4 -163 4 -185 1 -32 -5 -236 -11 -353 -1 -34 -6 -32 105 -47 72
-10 194 -7 216 5 19 10 82 13 131 7 14 -2 37 0 52 4 17 5 31 3 37 -5 15 -18
1584 -17 1602 1 10 10 7 14 -12 22 -21 8 -22 10 -6 16 11 5 25 1 36 -9 25 -23
47 -20 71 12 19 23 21 34 15 72 -4 25 -9 65 -10 90 -1 25 -5 70 -9 100 -14
136 -30 524 -29 736 1 119 0 122 -24 135 -14 7 -21 19 -18 27 4 10 -2 12 -23
8 -48 -9 -291 -18 -487 -17 -104 0 -233 0 -285 0 -104 -1 -209 1 -282 5 -27 2
-48 -1 -48 -7 0 -5 -12 -6 -27 -2 -16 4 -73 9 -128 10 -55 2 -108 6 -117 10
-9 4 -25 2 -36 -4 -10 -5 -23 -7 -28 -2 -5 4 -27 4 -49 0z m485 -84 c179 -2
429 -7 555 -10 127 -3 282 -7 345 -8 63 -1 118 -6 121 -11 4 -5 5 -38 2 -75
-5 -67 -7 -441 -4 -745 1 -92 0 -171 -3 -174 -3 -3 -17 0 -30 6 -19 8 -26 8
-29 -1 -2 -8 -98 -12 -363 -14 -197 -1 -370 -5 -384 -10 -14 -5 -47 -7 -75 -5
-79 5 -147 5 -182 -1 -18 -3 -33 -2 -33 2 0 4 -52 7 -114 7 -63 0 -113 -3
-110 -7 5 -8 -93 -15 -150 -11 -29 3 -36 6 -25 13 11 7 11 9 -3 9 -10 0 -18
-4 -18 -8 0 -5 -25 -10 -56 -11 -31 -1 -62 -4 -67 -8 -6 -4 -8 0 -4 10 8 20 3
21 -26 5 -22 -12 -160 -20 -153 -9 2 3 -46 6 -107 6 -107 0 -112 1 -107 20 2
11 4 40 3 65 -1 25 -2 88 -2 140 2 155 1 183 -2 215 -3 30 7 101 16 115 3 4 7
38 9 75 4 54 3 65 -8 56 -11 -9 -14 -2 -16 36 -6 113 -2 280 7 315 3 13 9 15
28 8 12 -5 25 -6 28 -4 9 9 118 10 124 2 2 -5 9 -5 15 -2 6 4 104 8 219 9 115
1 212 4 215 8 3 3 18 3 32 1 15 -3 173 -7 352 -9z"/>
<path d="M2578 657 c-66 -48 -89 -88 -114 -192 -18 -79 -14 -146 9 -170 9 -8
14 -21 12 -28 -8 -19 60 -86 108 -107 24 -11 75 -22 113 -26 68 -6 70 -5 139
37 80 49 87 56 120 124 36 73 33 133 -8 220 -64 132 -122 174 -249 180 -72 4
-74 3 -130 -38z m216 -60 c109 -114 138 -199 101 -292 -31 -78 -174 -136 -246
-100 -101 51 -144 142 -122 258 17 89 34 117 97 156 77 47 108 43 170 -22z"/>
<path d="M1502 680 c-19 -8 -22 -15 -17 -47 3 -21 8 -81 10 -133 12 -220 26
-255 139 -340 29 -22 131 -21 185 2 112 47 133 104 130 342 -1 92 -6 169 -11
172 -14 9 -39 -19 -39 -42 0 -10 1 -57 1 -104 1 -92 -2 -120 -26 -223 -19 -78
-38 -97 -103 -100 -32 -1 -45 4 -58 22 -10 12 -28 35 -40 50 -18 22 -32 55
-38 91 -3 14 -27 191 -31 229 -4 27 -14 52 -29 67 -26 26 -37 28 -73 14z"/>
<path d="M2047 678 c-14 -11 -16 -21 -9 -58 4 -25 7 -67 6 -95 -12 -299 -12
-316 10 -331 48 -33 104 -6 86 42 -7 18 -14 109 -11 152 2 25 18 9 96 -97 81
-110 102 -128 143 -125 12 1 31 2 42 3 26 1 25 11 -3 41 -42 45 -207 253 -207
260 0 4 35 38 78 76 102 91 97 86 111 112 10 18 9 23 -4 28 -34 14 -73 -11
-162 -103 -52 -53 -95 -94 -97 -92 -2 2 -6 44 -9 93 -6 103 -24 127 -70 94z"/>
<path d="M1374 665 c-16 -7 -69 -55 -119 -105 l-90 -92 -5 88 c-6 100 -11 114
-44 114 -38 0 -48 -22 -38 -77 5 -27 8 -64 6 -83 -1 -19 -4 -102 -5 -185 l-4
-150 44 -3 c63 -5 71 1 61 40 -13 46 -19 153 -11 167 10 15 23 -1 102 -127 60
-96 67 -104 108 -116 39 -11 49 -11 72 2 l26 16 -44 55 c-25 31 -77 96 -116
144 -40 49 -74 92 -75 98 -2 5 13 24 34 42 72 61 164 153 164 164 0 17 -35 21
-66 8z"/>
<path d="M3190 665 c-56 -30 -115 -134 -127 -226 -18 -135 22 -222 126 -276
59 -30 72 -33 145 -32 104 2 154 31 223 130 30 42 35 172 10 251 -21 65 -63
108 -136 142 -52 23 -205 31 -241 11z m206 -56 c100 -61 149 -185 121 -301
-23 -94 -177 -160 -265 -114 -112 59 -139 328 -40 411 16 14 34 23 39 20 5 -4
17 -1 26 4 24 14 79 5 119 -20z"/>
<path d="M3664 646 c-3 -8 -3 -20 1 -27 4 -6 9 -90 11 -187 4 -176 9 -250 15
-256 2 -2 14 -7 26 -10 36 -11 38 13 18 247 -3 31 -2 57 2 57 5 -1 33 -33 63
-72 75 -97 103 -124 204 -193 118 -80 118 -80 110 145 -8 257 -11 300 -18 307
-3 4 -19 2 -34 -3 -25 -9 -27 -13 -24 -54 7 -103 7 -290 1 -290 -11 0 -134
135 -213 233 -42 53 -86 99 -98 102 -13 4 -31 9 -41 11 -10 3 -20 -1 -23 -10z"/>
</g>
</svg>
